<svg xmlns="http://www.w3.org/2000/svg" version="1.1" xmlns:xlink="http://www.w3.org/1999/xlink" xmlns:svgjs="http://svgjs.com/svgjs" width="40" height="40"><svg width="40" height="40" viewBox="0 0 40 40" fill="none" xmlns="http://www.w3.org/2000/svg">
<rect width="40" height="40" rx="4" fill="#2860F4"></rect>
<g filter="url(#filter0_d_100_764)">
<path d="M3.39735 20.5952C3.31224 17.5161 4.08641 14.4742 5.63306 11.8104C7.17971 9.14664 9.43772 6.96628 12.154 5.51374C14.8702 4.06121 17.9374 3.39392 21.0116 3.58668C24.0858 3.77944 27.0455 4.82462 29.5591 6.60507C32.0726 8.38552 34.0406 10.8309 35.2424 13.667C36.4442 16.5031 36.8323 19.6179 36.3633 22.6622C35.8942 25.7065 34.5865 28.56 32.5868 30.9029C30.587 33.2457 27.9742 34.9853 25.0413 35.9266L24.4748 32.6083C26.7534 31.7841 28.7627 30.3515 30.2847 28.4662C31.8067 26.5808 32.7833 24.3146 33.1085 21.9135C33.4337 19.5124 33.095 17.068 32.1293 14.8457C31.1636 12.6235 29.6077 10.7081 27.6304 9.30754C25.6532 7.90696 23.3301 7.07466 20.9133 6.90095C18.4965 6.72725 16.0783 7.21877 13.921 8.32218C11.7638 9.42559 9.94998 11.0987 8.67638 13.1601C7.40278 15.2214 6.71806 17.5922 6.69652 20.0151L3.39456 20.5789L3.39735 20.5952Z" fill="white"></path>
</g>
<g filter="url(#filter1_d_100_764)">
<path d="M18.1111 35.7778C18.363 35.7778 18.5739 35.6924 18.744 35.5218C18.9141 35.3511 18.9994 35.1401 19 34.8889V34C19 33.7481 18.9147 33.5372 18.744 33.3671C18.5733 33.197 18.3624 33.1117 18.1111 33.1111C17.8599 33.1105 17.6486 33.1958 17.4773 33.3671C17.3061 33.5384 17.221 33.7493 17.2222 34V34.8889C17.2222 35.1407 17.3076 35.352 17.4782 35.5227C17.6489 35.6933 17.8599 35.7784 18.1111 35.7778ZM14.5556 35.7778C14.8074 35.7778 15.0184 35.6924 15.1884 35.5218C15.3585 35.3511 15.4439 35.1401 15.4444 34.8889L15.4444 30C15.4444 29.7481 15.3591 29.5372 15.1884 29.3671C15.0178 29.197 14.8068 29.1117 14.5556 29.1111C14.3043 29.1105 14.093 29.1959 13.9218 29.3671C13.7505 29.5384 13.6655 29.7493 13.6667 30L13.6667 34.8889C13.6667 35.1407 13.752 35.352 13.9227 35.5227C14.0933 35.6933 14.3043 35.7784 14.5556 35.7778ZM11 35.7778C11.2519 35.7778 11.4628 35.6924 11.6329 35.5218C11.803 35.3511 11.8883 35.1401 11.8889 34.8889L11.8889 31.7778C11.8889 31.5259 11.8036 31.315 11.6329 31.1449C11.4622 30.9748 11.2513 30.8895 11 30.8889C10.7487 30.8883 10.5375 30.9736 10.3662 31.1449C10.195 31.3161 10.1099 31.5271 10.1111 31.7778L10.1111 34.8889C10.1111 35.1407 10.1965 35.352 10.3671 35.5227C10.5378 35.6933 10.7487 35.7784 11 35.7778ZM7.44445 35.7778C7.69631 35.7778 7.90727 35.6924 8.07734 35.5218C8.24742 35.3511 8.33275 35.1401 8.33334 34.8889L8.33334 30.4444C8.33334 30.1926 8.24801 29.9816 8.07734 29.8116C7.90668 29.6415 7.69571 29.5561 7.44445 29.5556C7.1932 29.555 6.98194 29.6403 6.81068 29.8116C6.63942 29.9828 6.55438 30.1938 6.55557 30.4444L6.55557 34.8889C6.55557 35.1407 6.6409 35.352 6.81157 35.5227C6.98223 35.6933 7.1932 35.7784 7.44445 35.7778ZM3.8889 35.7778C4.14075 35.7778 4.35172 35.6924 4.52179 35.5218C4.69186 35.3511 4.7772 35.1401 4.77779 34.8889L4.77779 26.8889C4.77779 26.637 4.69246 26.4261 4.52179 26.256C4.35112 26.0859 4.14016 26.0006 3.8889 26C3.63764 25.9994 3.42638 26.0847 3.25513 26.256C3.08387 26.4273 2.99883 26.6382 3.00001 26.8889L3.00001 34.8889C3.00001 35.1407 3.08535 35.352 3.25601 35.5227C3.42668 35.6933 3.63764 35.7784 3.8889 35.7778Z" fill="white"></path>
</g>
<g filter="url(#filter2_d_100_764)">
<g clip-path="url(#clip0_100_764)">
<g filter="url(#filter3_d_100_764)">
<path d="M18.6913 17.2595C18.8805 17.1095 19.1055 17.0003 19.3463 16.9312V19.2603C19.1086 19.1952 18.886 19.0839 18.6913 18.9328C18.363 18.672 18.2363 18.3653 18.2363 18.0962C18.2363 17.827 18.363 17.5203 18.6913 17.2595ZM20.5963 23.0228V20.6695C20.8855 20.7403 21.1497 20.8595 21.3638 21.0203C21.7197 21.287 21.8463 21.592 21.8463 21.8462C21.8463 22.1003 21.7197 22.4053 21.3638 22.672C21.1341 22.8391 20.8731 22.959 20.5963 23.0228Z" fill="white"></path>
<path fill-rule="evenodd" clip-rule="evenodd" d="M19.9712 11.8462C15.4837 11.8462 11.8462 15.4837 11.8462 19.9712C11.8462 24.4587 15.4837 28.0962 19.9712 28.0962C24.4587 28.0962 28.0962 24.4587 28.0962 19.9712C28.0962 15.4837 24.4587 11.8462 19.9712 11.8462ZM20.5962 14.9712C20.5962 14.8054 20.5303 14.6465 20.4131 14.5292C20.2959 14.412 20.137 14.3462 19.9712 14.3462C19.8054 14.3462 19.6465 14.412 19.5292 14.5292C19.412 14.6465 19.3462 14.8054 19.3462 14.9712V15.6512C18.8236 15.7391 18.331 15.9556 17.9129 16.2812C17.3195 16.7529 16.9862 17.4062 16.9862 18.0962C16.9862 18.787 17.3195 19.4395 17.9137 19.9112C18.332 20.2445 18.832 20.4504 19.3462 20.5412V23.0229C19.0694 22.9587 18.8083 22.8394 18.5787 22.672L17.8462 22.122C17.7805 22.0728 17.7058 22.0369 17.6263 22.0166C17.5468 21.9962 17.4641 21.9917 17.3828 22.0033C17.2187 22.0267 17.0706 22.1144 16.9712 22.247C16.8717 22.3796 16.829 22.5463 16.8525 22.7104C16.8759 22.8745 16.9636 23.0226 17.0962 23.122L17.8287 23.672C18.2729 24.0054 18.8029 24.2095 19.3462 24.297V24.9712C19.3462 25.137 19.412 25.2959 19.5292 25.4131C19.6465 25.5303 19.8054 25.5962 19.9712 25.5962C20.137 25.5962 20.2959 25.5303 20.4131 25.4131C20.5303 25.2959 20.5962 25.137 20.5962 24.9712V24.2962C21.145 24.2137 21.6657 23.9996 22.1137 23.672C22.7345 23.2062 23.0962 22.552 23.0962 21.8462C23.0962 21.1404 22.7345 20.4862 22.1137 20.0204C21.6658 19.6925 21.1451 19.478 20.5962 19.3954V16.9329C20.8379 17.0012 21.062 17.1104 21.2512 17.2604L21.597 17.5354C21.7269 17.6385 21.8924 17.6858 22.0571 17.6669C22.2218 17.6479 22.3723 17.5644 22.4754 17.4345C22.5785 17.3047 22.6258 17.1392 22.6068 16.9745C22.5879 16.8098 22.5044 16.6593 22.3745 16.5562L22.0287 16.2812C21.6107 15.956 21.1184 15.7399 20.5962 15.652V14.9712Z" fill="white"></path>
</g>
</g>
</g>
<defs>
<filter id="SvgjsFilter1004" x="2.09111" y="2.2542" width="35.7655" height="34.9726" filterUnits="userSpaceOnUse" color-interpolation-filters="sRGB">
<feFlood flood-opacity="0" result="BackgroundImageFix"></feFlood>
<feColorMatrix in="SourceAlpha" type="matrix" values="0 0 0 0 0 0 0 0 0 0 0 0 0 0 0 0 0 0 127 0" result="hardAlpha"></feColorMatrix>
<feOffset></feOffset>
<feGaussianBlur stdDeviation="0.65"></feGaussianBlur>
<feComposite in2="hardAlpha" operator="out"></feComposite>
<feColorMatrix type="matrix" values="0 0 0 0 0 0 0 0 0 0 0 0 0 0 0 0 0 0 0.25 0"></feColorMatrix>
<feBlend mode="normal" in2="BackgroundImageFix" result="effect1_dropShadow_100_764"></feBlend>
<feBlend mode="normal" in="SourceGraphic" in2="effect1_dropShadow_100_764" result="shape"></feBlend>
</filter>
<filter id="SvgjsFilter1003" x="1.7" y="24.7" width="18.6" height="12.3778" filterUnits="userSpaceOnUse" color-interpolation-filters="sRGB">
<feFlood flood-opacity="0" result="BackgroundImageFix"></feFlood>
<feColorMatrix in="SourceAlpha" type="matrix" values="0 0 0 0 0 0 0 0 0 0 0 0 0 0 0 0 0 0 127 0" result="hardAlpha"></feColorMatrix>
<feOffset></feOffset>
<feGaussianBlur stdDeviation="0.65"></feGaussianBlur>
<feComposite in2="hardAlpha" operator="out"></feComposite>
<feColorMatrix type="matrix" values="0 0 0 0 0 0 0 0 0 0 0 0 0 0 0 0 0 0 0.25 0"></feColorMatrix>
<feBlend mode="normal" in2="BackgroundImageFix" result="effect1_dropShadow_100_764"></feBlend>
<feBlend mode="normal" in="SourceGraphic" in2="effect1_dropShadow_100_764" result="shape"></feBlend>
</filter>
<filter id="SvgjsFilter1002" x="8.7" y="8.7" width="22.6" height="22.6" filterUnits="userSpaceOnUse" color-interpolation-filters="sRGB">
<feFlood flood-opacity="0" result="BackgroundImageFix"></feFlood>
<feColorMatrix in="SourceAlpha" type="matrix" values="0 0 0 0 0 0 0 0 0 0 0 0 0 0 0 0 0 0 127 0" result="hardAlpha"></feColorMatrix>
<feOffset></feOffset>
<feGaussianBlur stdDeviation="0.65"></feGaussianBlur>
<feComposite in2="hardAlpha" operator="out"></feComposite>
<feColorMatrix type="matrix" values="0 0 0 0 0 0 0 0 0 0 0 0 0 0 0 0 0 0 0.25 0"></feColorMatrix>
<feBlend mode="normal" in2="BackgroundImageFix" result="effect1_dropShadow_100_764"></feBlend>
<feBlend mode="normal" in="SourceGraphic" in2="effect1_dropShadow_100_764" result="shape"></feBlend>
</filter>
<filter id="SvgjsFilter1001" x="8.84619" y="10.8462" width="22.25" height="22.25" filterUnits="userSpaceOnUse" color-interpolation-filters="sRGB">
<feFlood flood-opacity="0" result="BackgroundImageFix"></feFlood>
<feColorMatrix in="SourceAlpha" type="matrix" values="0 0 0 0 0 0 0 0 0 0 0 0 0 0 0 0 0 0 127 0" result="hardAlpha"></feColorMatrix>
<feOffset dy="2"></feOffset>
<feGaussianBlur stdDeviation="1.5"></feGaussianBlur>
<feComposite in2="hardAlpha" operator="out"></feComposite>
<feColorMatrix type="matrix" values="0 0 0 0 0 0 0 0 0 0 0 0 0 0 0 0 0 0 0.25 0"></feColorMatrix>
<feBlend mode="normal" in2="BackgroundImageFix" result="effect1_dropShadow_100_764"></feBlend>
<feBlend mode="normal" in="SourceGraphic" in2="effect1_dropShadow_100_764" result="shape"></feBlend>
</filter>
<clipPath id="SvgjsClipPath1000">
<rect width="20" height="20" fill="white" transform="translate(10 10)"></rect>
</clipPath>
</defs>
</svg><style>@media (prefers-color-scheme: light) { :root { filter: none; } }
</style></svg>