<svg width="63" height="63" viewBox="0 0 63 63" fill="none" xmlns="http://www.w3.org/2000/svg">
<g filter="url(#filter0_d_261_12307)">
<path d="M42.5282 48.2354C42.6801 48.2354 42.8074 48.1839 42.91 48.0809C43.0126 47.978 43.0641 47.8507 43.0645 47.6991V47.1629C43.0645 47.0109 43.013 46.8837 42.91 46.7811C42.8071 46.6785 42.6798 46.627 42.5282 46.6266C42.3766 46.6263 42.2492 46.6777 42.1459 46.7811C42.0425 46.8844 41.9912 47.0116 41.992 47.1629V47.6991C41.992 47.8511 42.0434 47.9785 42.1464 48.0815C42.2494 48.1844 42.3766 48.2357 42.5282 48.2354ZM40.3832 48.2354C40.5352 48.2354 40.6624 48.1839 40.765 48.0809C40.8676 47.978 40.9191 47.8507 40.9195 47.6991V44.7498C40.9195 44.5978 40.868 44.4706 40.765 44.3679C40.6621 44.2653 40.5348 44.2139 40.3832 44.2135C40.2316 44.2132 40.1042 44.2646 40.0009 44.3679C39.8976 44.4713 39.8463 44.5985 39.847 44.7498V47.6991C39.847 47.8511 39.8985 47.9785 40.0014 48.0815C40.1044 48.1844 40.2316 48.2357 40.3832 48.2354ZM38.2382 48.2354C38.3902 48.2354 38.5174 48.1839 38.62 48.0809C38.7226 47.978 38.7741 47.8507 38.7745 47.6991V45.8223C38.7745 45.6703 38.723 45.543 38.62 45.4404C38.5171 45.3378 38.3898 45.2864 38.2382 45.286C38.0867 45.2856 37.9592 45.3371 37.8559 45.4404C37.7526 45.5438 37.7013 45.671 37.702 45.8223V47.6991C37.702 47.8511 37.7535 47.9785 37.8564 48.0815C37.9594 48.1844 38.0867 48.2357 38.2382 48.2354ZM36.0932 48.2354C36.2452 48.2354 36.3725 48.1839 36.4751 48.0809C36.5777 47.978 36.6291 47.8507 36.6295 47.6991V45.0179C36.6295 44.8659 36.578 44.7387 36.4751 44.6361C36.3721 44.5335 36.2448 44.482 36.0932 44.4816C35.9417 44.4813 35.8142 44.5328 35.7109 44.6361C35.6076 44.7394 35.5563 44.8667 35.557 45.0179V47.6991C35.557 47.8511 35.6085 47.9785 35.7114 48.0815C35.8144 48.1844 35.9417 48.2357 36.0932 48.2354ZM33.9483 48.2354C34.1002 48.2354 34.2275 48.1839 34.3301 48.0809C34.4327 47.978 34.4842 47.8507 34.4845 47.6991V42.8729C34.4845 42.721 34.433 42.5937 34.3301 42.4911C34.2271 42.3885 34.0998 42.337 33.9483 42.3366C33.7967 42.3363 33.6692 42.3878 33.5659 42.4911C33.4626 42.5944 33.4113 42.7217 33.412 42.8729V47.6991C33.412 47.8511 33.4635 47.9785 33.5665 48.0815C33.6694 48.1844 33.7967 48.2357 33.9483 48.2354ZM37.1657 43.3957C37.3087 43.3957 37.4451 43.3689 37.5749 43.3153C37.7047 43.2617 37.823 43.1857 37.9299 43.0874L39.3107 41.7066L42.1528 44.5487C42.2601 44.6559 42.3874 44.7074 42.5346 44.7031C42.6819 44.6988 42.8094 44.6429 42.917 44.5353C43.0153 44.428 43.0621 44.3007 43.0575 44.1534C43.0528 44.0062 43.0015 43.8832 42.9036 43.7845L40.0749 40.9558C39.9676 40.8486 39.8491 40.7704 39.7193 40.7215C39.5896 40.6725 39.4534 40.6478 39.3107 40.6475C39.1681 40.6471 39.0296 40.6718 38.8951 40.7215C38.7607 40.7712 38.6445 40.8493 38.5466 40.9558L37.1657 42.3366L34.3236 39.4945C34.2164 39.3873 34.0889 39.3358 33.9413 39.3401C33.7936 39.3444 33.6664 39.4003 33.5595 39.5079C33.4612 39.6152 33.4142 39.7426 33.4185 39.8903C33.4227 40.0379 33.4742 40.1607 33.5729 40.2587L36.4016 43.0874C36.4999 43.1857 36.6161 43.2617 36.7502 43.3153C36.8842 43.3689 37.0227 43.3957 37.1657 43.3957Z" fill="#CEA619"/>
</g>
<g filter="url(#filter1_d_261_12307)">
<path d="M20.5714 48.2354C20.4195 48.2354 20.2922 48.1839 20.1896 48.0809C20.087 47.978 20.0355 47.8507 20.0352 47.6991V47.1629C20.0352 47.0109 20.0866 46.8837 20.1896 46.7811C20.2926 46.6785 20.4198 46.627 20.5714 46.6266C20.723 46.6263 20.8504 46.6777 20.9537 46.7811C21.0571 46.8844 21.1084 47.0117 21.1076 47.1629V47.6991C21.1076 47.8511 21.0562 47.9785 20.9532 48.0815C20.8503 48.1844 20.723 48.2357 20.5714 48.2354ZM22.7164 48.2354C22.5645 48.2354 22.4372 48.1839 22.3346 48.0809C22.232 47.978 22.1805 47.8507 22.1801 47.6991V44.7498C22.1801 44.5978 22.2316 44.4706 22.3346 44.3679C22.4375 44.2653 22.5648 44.2139 22.7164 44.2135C22.868 44.2132 22.9954 44.2646 23.0987 44.3679C23.202 44.4713 23.2534 44.5985 23.2526 44.7498V47.6991C23.2526 47.8511 23.2012 47.9785 23.0982 48.0815C22.9952 48.1844 22.868 48.2357 22.7164 48.2354ZM24.8614 48.2354C24.7094 48.2354 24.5822 48.1839 24.4796 48.0809C24.377 47.978 24.3255 47.8507 24.3251 47.6991V45.8223C24.3251 45.6703 24.3766 45.543 24.4796 45.4404C24.5825 45.3378 24.7098 45.2864 24.8614 45.286C25.013 45.2856 25.1404 45.3371 25.2437 45.4404C25.347 45.5438 25.3983 45.671 25.3976 45.8223V47.6991C25.3976 47.8511 25.3461 47.9785 25.2432 48.0815C25.1402 48.1844 25.013 48.2357 24.8614 48.2354ZM27.0064 48.2354C26.8544 48.2354 26.7272 48.1839 26.6246 48.0809C26.522 47.978 26.4705 47.8507 26.4701 47.6991V45.0179C26.4701 44.8659 26.5216 44.7387 26.6246 44.6361C26.7275 44.5335 26.8548 44.482 27.0064 44.4816C27.1579 44.4813 27.2854 44.5328 27.3887 44.6361C27.492 44.7394 27.5433 44.8667 27.5426 45.0179V47.6991C27.5426 47.8511 27.4911 47.9785 27.3882 48.0815C27.2852 48.1844 27.1579 48.2357 27.0064 48.2354ZM29.1513 48.2354C28.9994 48.2354 28.8721 48.1839 28.7695 48.0809C28.6669 47.978 28.6155 47.8507 28.6151 47.6991V42.8729C28.6151 42.721 28.6666 42.5937 28.7695 42.4911C28.8725 42.3885 28.9998 42.337 29.1513 42.3366C29.3029 42.3363 29.4304 42.3878 29.5337 42.4911C29.637 42.5944 29.6883 42.7217 29.6876 42.8729V47.6991C29.6876 47.8511 29.6361 47.9785 29.5332 48.0815C29.4302 48.1844 29.3029 48.2357 29.1513 48.2354ZM25.9339 43.3957C25.7909 43.3957 25.6545 43.3689 25.5247 43.3153C25.3949 43.2617 25.2766 43.1857 25.1697 43.0874L23.7889 41.7066L20.9468 44.5487C20.8395 44.6559 20.7123 44.7074 20.565 44.7031C20.4177 44.6988 20.2902 44.6429 20.1826 44.5353C20.0843 44.428 20.0375 44.3007 20.0421 44.1534C20.0468 44.0062 20.0981 43.8832 20.196 43.7845L23.0247 40.9558C23.132 40.8486 23.2505 40.7704 23.3803 40.7215C23.51 40.6725 23.6462 40.6478 23.7889 40.6475C23.9315 40.6471 24.0701 40.6718 24.2045 40.7215C24.3389 40.7712 24.4551 40.8493 24.553 40.9558L25.9339 42.3366L28.776 39.4945C28.8832 39.3873 29.0107 39.3358 29.1583 39.3401C29.306 39.3444 29.4332 39.4003 29.5401 39.5079C29.6384 39.6152 29.6854 39.7426 29.6812 39.8903C29.6769 40.0379 29.6254 40.1607 29.5267 40.2587L26.698 43.0874C26.5997 43.1857 26.4835 43.2617 26.3495 43.3153C26.2154 43.3689 26.0769 43.3957 25.9339 43.3957Z" fill="#CEA619"/>
</g>
<g filter="url(#filter2_d_261_12307)">
<path d="M13.7268 45.267C11.1988 41.9654 9.64038 38.0249 9.22616 33.8873C8.81195 29.7496 9.55834 25.5784 11.3817 21.8412C13.205 18.1039 16.0332 14.9484 19.5493 12.7283C23.0653 10.5082 27.1302 9.31122 31.2883 9.27162C35.4464 9.23203 39.5334 10.3513 43.0911 12.5041C46.6488 14.6569 49.5366 17.758 51.4307 21.4598C53.3249 25.1616 54.1506 29.3179 53.8153 33.4627C53.4799 37.6074 51.9968 41.5769 49.5321 44.926L46.2882 41.7433C48.1295 39.0397 49.1952 35.8834 49.3696 32.617C49.544 29.3505 48.8204 26.0987 47.2775 23.2144C45.7345 20.3301 43.4311 17.9234 40.6171 16.2556C37.8031 14.5878 34.5861 13.7225 31.3152 13.7536C28.0442 13.7848 24.8443 14.7112 22.0626 16.4323C19.2809 18.1534 17.0237 20.6035 15.536 23.5166C14.0482 26.4298 13.3867 29.6948 13.6233 32.9574C13.8598 36.2199 14.9854 39.3553 16.8779 42.0234L13.7108 45.2513L13.7268 45.267ZM20.1079 38.7632C18.85 36.7384 18.1536 34.4153 18.0902 32.0324C18.0269 29.6495 18.5987 27.2927 19.7472 25.2038C20.8957 23.115 22.5793 21.3694 24.6253 20.1463C26.6713 18.9231 29.006 18.2665 31.3896 18.2438C33.7732 18.2211 36.12 18.8332 38.1889 20.0171C40.2578 21.2011 41.9744 22.9143 43.1624 24.9809C44.3505 27.0474 44.9671 29.393 44.9491 31.7766C44.9311 34.1603 44.2791 36.4962 43.06 38.5447L39.7043 35.2522C40.3089 33.8823 40.5594 32.3823 40.4327 30.8903C40.3061 29.3982 39.8064 27.9619 38.9795 26.7135C38.1527 25.4651 37.0253 24.4445 35.7009 23.7457C34.3766 23.0469 32.8978 22.6923 31.4005 22.7144C29.9073 22.7333 28.4425 23.1254 27.1395 23.8549C25.8365 24.5844 24.7366 25.6282 23.9399 26.8913C23.1433 28.1543 22.6752 29.5966 22.5782 31.0868C22.4812 32.577 22.7584 34.0678 23.3847 35.4234L20.0922 38.7792L20.1079 38.7632Z" fill="#1D1D1D"/>
</g>
<g filter="url(#filter3_d_261_12307)">
<path d="M30.5618 29.4532C30.7092 29.3363 30.8847 29.2512 31.0724 29.1973V31.0131C30.8871 30.9624 30.7136 30.8756 30.5618 30.7578C30.3058 30.5545 30.207 30.3154 30.207 30.1055C30.207 29.8957 30.3058 29.6566 30.5618 29.4532ZM32.0469 33.9465V32.1117C32.2724 32.167 32.4783 32.2599 32.6453 32.3853C32.9227 32.5932 33.0215 32.8309 33.0215 33.0291C33.0215 33.2273 32.9227 33.465 32.6453 33.6729C32.4662 33.8032 32.2627 33.8967 32.0469 33.9465Z" fill="#C9A938"/>
<path fill-rule="evenodd" clip-rule="evenodd" d="M31.5746 25.2285C28.0761 25.2285 25.2402 28.0644 25.2402 31.5629C25.2402 35.0615 28.0761 37.8973 31.5746 37.8973C35.0732 37.8973 37.9091 35.0615 37.9091 31.5629C37.9091 28.0644 35.0732 25.2285 31.5746 25.2285ZM32.0619 27.6648C32.0619 27.5356 32.0106 27.4117 31.9192 27.3203C31.8278 27.2289 31.7039 27.1776 31.5746 27.1776C31.4454 27.1776 31.3215 27.2289 31.2301 27.3203C31.1387 27.4117 31.0874 27.5356 31.0874 27.6648V28.195C30.6799 28.2635 30.2959 28.4323 29.9699 28.6861C29.5074 29.0539 29.2475 29.5632 29.2475 30.1011C29.2475 30.6397 29.5074 31.1484 29.9706 31.5162C30.2967 31.776 30.6865 31.9365 31.0874 32.0073V33.9421C30.8716 33.8921 30.6681 33.799 30.489 33.6686L29.918 33.2398C29.8668 33.2014 29.8085 33.1734 29.7465 33.1576C29.6845 33.1417 29.62 33.1382 29.5567 33.1472C29.4288 33.1655 29.3133 33.2338 29.2358 33.3372C29.1583 33.4406 29.125 33.5706 29.1432 33.6985C29.1615 33.8264 29.2299 33.9418 29.3332 34.0194L29.9043 34.4482C30.2506 34.708 30.6638 34.8672 31.0874 34.9354V35.461C31.0874 35.5903 31.1387 35.7142 31.2301 35.8056C31.3215 35.897 31.4454 35.9483 31.5746 35.9483C31.7039 35.9483 31.8278 35.897 31.9192 35.8056C32.0106 35.7142 32.0619 35.5903 32.0619 35.461V34.9348C32.4898 34.8705 32.8957 34.7035 33.245 34.4482C33.729 34.085 34.011 33.575 34.011 33.0247C34.011 32.4744 33.729 31.9644 33.245 31.6013C32.8958 31.3456 32.4898 31.1784 32.0619 31.114V29.1942C32.2503 29.2475 32.4251 29.3326 32.5726 29.4495L32.8422 29.6639C32.9434 29.7443 33.0724 29.7812 33.2008 29.7664C33.3293 29.7517 33.4466 29.6865 33.5269 29.5853C33.6073 29.4841 33.6442 29.355 33.6295 29.2266C33.6147 29.0982 33.5496 28.9809 33.4483 28.9005L33.1787 28.6861C32.8528 28.4326 32.4691 28.2641 32.0619 28.1956V27.6648Z" fill="#CEA619"/>
</g>
<defs>
<filter id="filter0_d_261_12307" x="33.0121" y="38.9398" width="10.4523" height="9.69648" filterUnits="userSpaceOnUse" color-interpolation-filters="sRGB">
<feFlood flood-opacity="0" result="BackgroundImageFix"/>
<feColorMatrix in="SourceAlpha" type="matrix" values="0 0 0 0 0 0 0 0 0 0 0 0 0 0 0 0 0 0 127 0" result="hardAlpha"/>
<feOffset/>
<feGaussianBlur stdDeviation="0.2"/>
<feComposite in2="hardAlpha" operator="out"/>
<feColorMatrix type="matrix" values="0 0 0 0 0 0 0 0 0 0 0 0 0 0 0 0 0 0 0.25 0"/>
<feBlend mode="normal" in2="BackgroundImageFix" result="effect1_dropShadow_261_12307"/>
<feBlend mode="normal" in="SourceGraphic" in2="effect1_dropShadow_261_12307" result="shape"/>
</filter>
<filter id="filter1_d_261_12307" x="19.6352" y="38.9398" width="10.4523" height="9.69648" filterUnits="userSpaceOnUse" color-interpolation-filters="sRGB">
<feFlood flood-opacity="0" result="BackgroundImageFix"/>
<feColorMatrix in="SourceAlpha" type="matrix" values="0 0 0 0 0 0 0 0 0 0 0 0 0 0 0 0 0 0 127 0" result="hardAlpha"/>
<feOffset/>
<feGaussianBlur stdDeviation="0.2"/>
<feComposite in2="hardAlpha" operator="out"/>
<feColorMatrix type="matrix" values="0 0 0 0 0 0 0 0 0 0 0 0 0 0 0 0 0 0 0.25 0"/>
<feBlend mode="normal" in2="BackgroundImageFix" result="effect1_dropShadow_261_12307"/>
<feBlend mode="normal" in="SourceGraphic" in2="effect1_dropShadow_261_12307" result="shape"/>
</filter>
<filter id="filter2_d_261_12307" x="8.71523" y="8.87148" width="45.5734" height="36.7961" filterUnits="userSpaceOnUse" color-interpolation-filters="sRGB">
<feFlood flood-opacity="0" result="BackgroundImageFix"/>
<feColorMatrix in="SourceAlpha" type="matrix" values="0 0 0 0 0 0 0 0 0 0 0 0 0 0 0 0 0 0 127 0" result="hardAlpha"/>
<feOffset/>
<feGaussianBlur stdDeviation="0.2"/>
<feComposite in2="hardAlpha" operator="out"/>
<feColorMatrix type="matrix" values="0 0 0 0 0 0 0 0 0 0 0 0 0 0 0 0 0 0 0.25 0"/>
<feBlend mode="normal" in2="BackgroundImageFix" result="effect1_dropShadow_261_12307"/>
<feBlend mode="normal" in="SourceGraphic" in2="effect1_dropShadow_261_12307" result="shape"/>
</filter>
<filter id="filter3_d_261_12307" x="22.4402" y="22.4285" width="18.268" height="18.268" filterUnits="userSpaceOnUse" color-interpolation-filters="sRGB">
<feFlood flood-opacity="0" result="BackgroundImageFix"/>
<feColorMatrix in="SourceAlpha" type="matrix" values="0 0 0 0 0 0 0 0 0 0 0 0 0 0 0 0 0 0 127 0" result="hardAlpha"/>
<feOffset/>
<feGaussianBlur stdDeviation="1.4"/>
<feComposite in2="hardAlpha" operator="out"/>
<feColorMatrix type="matrix" values="0 0 0 0 0 0 0 0 0 0 0 0 0 0 0 0 0 0 0.25 0"/>
<feBlend mode="normal" in2="BackgroundImageFix" result="effect1_dropShadow_261_12307"/>
<feBlend mode="normal" in="SourceGraphic" in2="effect1_dropShadow_261_12307" result="shape"/>
</filter>
</defs>
</svg>
