<svg width="5305" height="4979" viewBox="0 0 5305 4979" fill="none" xmlns="http://www.w3.org/2000/svg">
<rect width="5305" height="4979" rx="221" fill="#2860F4"/>
<path d="M1725.06 3876.35C1710.87 3876.35 1698.99 3871.54 1689.42 3861.93C1679.84 3852.32 1675.03 3840.44 1675 3826.29V3776.23C1675 3762.05 1679.81 3750.17 1689.42 3740.59C1699.03 3731.02 1710.91 3726.21 1725.06 3726.18C1739.2 3726.15 1751.1 3730.95 1760.75 3740.59C1770.39 3750.24 1775.18 3762.12 1775.11 3776.23V3826.29C1775.11 3840.47 1770.31 3852.37 1760.7 3861.98C1751.08 3871.59 1739.2 3876.38 1725.06 3876.35ZM1925.28 3876.35C1911.1 3876.35 1899.22 3871.54 1889.64 3861.93C1880.06 3852.32 1875.26 3840.44 1875.22 3826.29V3550.98C1875.22 3536.8 1880.03 3524.92 1889.64 3515.34C1899.25 3505.77 1911.13 3500.96 1925.28 3500.93C1939.43 3500.89 1951.32 3505.7 1960.97 3515.34C1970.61 3524.99 1975.4 3536.87 1975.33 3550.98V3826.29C1975.33 3840.47 1970.53 3852.37 1960.92 3861.98C1951.31 3871.59 1939.43 3876.38 1925.28 3876.35ZM2125.5 3876.35C2111.32 3876.35 2099.44 3871.54 2089.86 3861.93C2080.28 3852.32 2075.48 3840.44 2075.44 3826.29V3651.1C2075.44 3636.91 2080.25 3625.03 2089.86 3615.46C2099.47 3605.88 2111.35 3601.07 2125.5 3601.04C2139.65 3601.01 2151.55 3605.81 2161.19 3615.46C2170.83 3625.1 2175.62 3636.98 2175.56 3651.1V3826.29C2175.56 3840.47 2170.75 3852.37 2161.14 3861.98C2151.53 3871.59 2139.65 3876.38 2125.5 3876.35ZM2325.72 3876.35C2311.54 3876.35 2299.66 3871.54 2290.08 3861.93C2280.5 3852.32 2275.7 3840.44 2275.67 3826.29V3576.01C2275.67 3561.83 2280.47 3549.95 2290.08 3540.37C2299.69 3530.79 2311.57 3525.99 2325.72 3525.96C2339.87 3525.92 2351.77 3530.73 2361.41 3540.37C2371.06 3550.02 2375.84 3561.9 2375.78 3576.01V3826.29C2375.78 3840.47 2370.97 3852.37 2361.36 3861.98C2351.75 3871.59 2339.87 3876.38 2325.72 3876.35ZM2525.94 3876.35C2511.76 3876.35 2499.88 3871.54 2490.3 3861.93C2480.73 3852.32 2475.92 3840.44 2475.89 3826.29V3375.79C2475.89 3361.61 2480.69 3349.73 2490.3 3340.15C2499.91 3330.57 2511.79 3325.77 2525.94 3325.73C2540.09 3325.7 2551.99 3330.51 2561.63 3340.15C2571.28 3349.79 2576.07 3361.67 2576 3375.79V3826.29C2576 3840.47 2571.19 3852.37 2561.58 3861.98C2551.97 3871.59 2540.09 3876.38 2525.94 3876.35ZM2225.61 3424.59C2212.26 3424.59 2199.53 3422.09 2187.42 3417.09C2175.3 3412.08 2164.26 3404.99 2154.28 3395.81L2025.39 3266.92L1760.09 3532.21C1750.08 3542.22 1738.2 3547.03 1724.45 3546.63C1710.71 3546.23 1698.81 3541.01 1688.77 3530.96C1679.59 3520.95 1675.22 3509.07 1675.65 3495.32C1676.08 3481.57 1680.87 3470.09 1690.02 3460.88L1954.06 3196.84C1964.07 3186.83 1975.13 3179.54 1987.25 3174.97C1999.36 3170.39 2012.07 3168.09 2025.39 3168.06C2038.7 3168.03 2051.63 3170.33 2064.18 3174.97C2076.73 3179.6 2087.57 3186.9 2096.72 3196.84L2225.61 3325.73L2490.9 3060.44C2500.92 3050.43 2512.81 3045.62 2526.59 3046.02C2540.38 3046.42 2552.26 3051.65 2562.23 3061.69C2571.41 3071.7 2575.8 3083.6 2575.4 3097.38C2575 3111.16 2570.19 3122.62 2560.98 3131.77L2296.94 3395.81C2287.76 3404.99 2276.92 3412.08 2264.4 3417.09C2251.89 3422.09 2238.96 3424.59 2225.61 3424.59Z" fill="white"/>
<path d="M3629.94 3876.35C3644.13 3876.35 3656.01 3871.54 3665.58 3861.93C3675.16 3852.32 3679.97 3840.44 3680 3826.29V3776.23C3680 3762.05 3675.19 3750.17 3665.58 3740.59C3655.97 3731.02 3644.09 3726.21 3629.94 3726.18C3615.8 3726.14 3603.9 3730.95 3594.25 3740.59C3584.61 3750.24 3579.82 3762.12 3579.89 3776.23V3826.29C3579.89 3840.47 3584.69 3852.37 3594.3 3861.98C3603.92 3871.59 3615.8 3876.38 3629.94 3876.35ZM3429.72 3876.35C3443.9 3876.35 3455.78 3871.54 3465.36 3861.93C3474.94 3852.32 3479.74 3840.44 3479.78 3826.29V3550.98C3479.78 3536.8 3474.97 3524.92 3465.36 3515.34C3455.75 3505.77 3443.87 3500.96 3429.72 3500.93C3415.57 3500.89 3403.68 3505.7 3394.03 3515.34C3384.39 3524.99 3379.6 3536.87 3379.67 3550.98V3826.29C3379.67 3840.47 3384.47 3852.37 3394.08 3861.98C3403.69 3871.59 3415.57 3876.38 3429.72 3876.35ZM3229.5 3876.35C3243.68 3876.35 3255.56 3871.54 3265.14 3861.93C3274.72 3852.32 3279.52 3840.44 3279.56 3826.29V3651.09C3279.56 3636.91 3274.75 3625.03 3265.14 3615.46C3255.53 3605.88 3243.65 3601.07 3229.5 3601.04C3215.35 3601.01 3203.45 3605.81 3193.81 3615.46C3184.17 3625.1 3179.38 3636.98 3179.44 3651.09V3826.29C3179.44 3840.47 3184.25 3852.37 3193.86 3861.98C3203.47 3871.59 3215.35 3876.38 3229.5 3876.35ZM3029.28 3876.35C3043.46 3876.35 3055.34 3871.54 3064.92 3861.93C3074.5 3852.32 3079.3 3840.44 3079.33 3826.29V3576.01C3079.33 3561.83 3074.53 3549.95 3064.92 3540.37C3055.31 3530.79 3043.43 3525.99 3029.28 3525.96C3015.13 3525.92 3003.23 3530.73 2993.59 3540.37C2983.94 3550.02 2979.16 3561.9 2979.22 3576.01V3826.29C2979.22 3840.47 2984.03 3852.37 2993.64 3861.98C3003.25 3871.59 3015.13 3876.38 3029.28 3876.35ZM2829.06 3876.35C2843.24 3876.35 2855.12 3871.54 2864.7 3861.93C2874.27 3852.32 2879.08 3840.44 2879.11 3826.29V3375.79C2879.11 3361.61 2874.31 3349.73 2864.7 3340.15C2855.09 3330.57 2843.21 3325.77 2829.06 3325.73C2814.91 3325.7 2803.01 3330.51 2793.37 3340.15C2783.72 3349.79 2778.93 3361.67 2779 3375.79V3826.29C2779 3840.47 2783.81 3852.37 2793.42 3861.98C2803.03 3871.59 2814.91 3876.38 2829.06 3876.35ZM3129.39 3424.59C3142.74 3424.59 3155.47 3422.09 3167.58 3417.09C3179.7 3412.08 3190.74 3404.99 3200.72 3395.81L3329.61 3266.92L3594.91 3532.21C3604.92 3542.22 3616.8 3547.03 3630.55 3546.63C3644.29 3546.23 3656.19 3541.01 3666.23 3530.96C3675.41 3520.95 3679.78 3509.07 3679.35 3495.32C3678.92 3481.57 3674.13 3470.09 3664.98 3460.88L3400.94 3196.84C3390.93 3186.83 3379.87 3179.54 3367.75 3174.97C3355.64 3170.39 3342.93 3168.09 3329.61 3168.06C3316.3 3168.03 3303.37 3170.33 3290.82 3174.97C3278.27 3179.6 3267.43 3186.9 3258.28 3196.84L3129.39 3325.73L2864.1 3060.44C2854.08 3050.43 2842.19 3045.62 2828.41 3046.02C2814.62 3046.42 2802.74 3051.65 2792.77 3061.69C2783.59 3071.7 2779.2 3083.6 2779.6 3097.38C2780 3111.16 2784.81 3122.62 2794.02 3131.77L3058.06 3395.81C3067.24 3404.99 3078.08 3412.08 3090.6 3417.09C3103.11 3422.09 3116.04 3424.59 3129.39 3424.59Z" fill="white"/>
<g filter="url(#filter0_d_108_443)">
<path d="M1322.31 3540.79C1129.43 3288.88 1010.53 2988.24 978.926 2672.55C947.323 2356.86 1004.27 2038.61 1143.39 1753.47C1282.5 1468.33 1498.28 1227.58 1766.54 1058.19C2034.81 888.801 2344.95 797.478 2662.2 794.457C2979.45 791.436 3291.27 876.837 3562.71 1041.08C3834.15 1205.33 4054.48 1441.94 4199 1724.38C4343.52 2006.81 4406.51 2323.92 4380.93 2640.15C4355.34 2956.39 4242.19 3259.24 4054.14 3514.77L3806.64 3271.94C3947.13 3065.66 4028.43 2824.85 4041.74 2575.63C4055.04 2326.41 3999.84 2078.31 3882.12 1858.24C3764.39 1638.18 3588.65 1454.56 3373.95 1327.31C3159.26 1200.06 2913.81 1134.04 2664.25 1136.42C2414.68 1138.8 2170.54 1209.48 1958.3 1340.79C1746.07 1472.11 1573.85 1659.04 1460.34 1881.31C1346.83 2103.57 1296.36 2352.68 1314.41 2601.6C1332.46 2850.52 1418.34 3089.74 1562.73 3293.31L1321.09 3539.59L1322.31 3540.79ZM1809.17 3044.57C1713.19 2890.08 1660.06 2712.84 1655.23 2531.03C1650.39 2349.22 1694.02 2169.4 1781.65 2010.03C1869.27 1850.66 1997.73 1717.48 2153.83 1624.16C2309.94 1530.84 2488.06 1480.74 2669.92 1479.01C2851.79 1477.28 3030.84 1523.97 3188.69 1614.3C3346.54 1704.63 3477.51 1835.35 3568.15 1993.02C3658.8 2150.69 3705.84 2329.65 3704.47 2511.52C3703.1 2693.38 3653.35 2871.61 3560.34 3027.89L3304.31 2776.69C3350.44 2672.17 3369.55 2557.73 3359.88 2443.89C3350.22 2330.05 3312.1 2220.47 3249.01 2125.22C3185.93 2029.96 3099.91 1952.1 2998.86 1898.78C2897.82 1845.47 2784.99 1818.41 2670.76 1820.1C2556.83 1821.54 2445.07 1851.45 2345.66 1907.11C2246.24 1962.77 2162.32 2042.41 2101.54 2138.78C2040.76 2235.15 2005.04 2345.19 1997.64 2458.88C1990.24 2572.58 2011.39 2686.32 2059.17 2789.76L1807.97 3045.79L1809.17 3044.57Z" fill="white"/>
</g>
<g filter="url(#filter1_d_108_443)">
<g filter="url(#filter2_d_108_443)">
<path d="M2607.15 2342.2C2617.32 2334.14 2629.41 2328.27 2642.36 2324.55V2449.74C2629.58 2446.24 2617.61 2440.26 2607.15 2432.14C2589.5 2418.12 2582.69 2401.64 2582.69 2387.17C2582.69 2372.7 2589.5 2356.22 2607.15 2342.2ZM2709.54 2651.98V2525.49C2725.09 2529.29 2739.28 2535.7 2750.8 2544.34C2769.92 2558.68 2776.73 2575.07 2776.73 2588.73C2776.73 2602.39 2769.92 2618.79 2750.8 2633.12C2738.45 2642.1 2724.42 2648.54 2709.54 2651.98Z" fill="#FFC908"/>
<path fill-rule="evenodd" clip-rule="evenodd" d="M2675.95 2051.23C2434.75 2051.23 2239.23 2246.75 2239.23 2487.95C2239.23 2729.15 2434.75 2924.67 2675.95 2924.67C2917.15 2924.67 3112.67 2729.15 3112.67 2487.95C3112.67 2246.75 2917.15 2051.23 2675.95 2051.23ZM2709.54 2219.2C2709.54 2210.29 2706 2201.75 2699.7 2195.45C2693.4 2189.15 2684.86 2185.61 2675.95 2185.61C2667.04 2185.61 2658.5 2189.15 2652.2 2195.45C2645.9 2201.75 2642.36 2210.29 2642.36 2219.2V2255.75C2614.27 2260.48 2587.79 2272.11 2565.31 2289.61C2533.42 2314.96 2515.51 2350.08 2515.51 2387.17C2515.51 2424.3 2533.42 2459.37 2565.36 2484.72C2587.84 2502.64 2614.72 2513.7 2642.36 2518.59V2651.98C2627.48 2648.53 2613.45 2642.11 2601.1 2633.12L2561.73 2603.56C2558.2 2600.91 2554.19 2598.98 2549.91 2597.89C2545.64 2596.79 2541.19 2596.55 2536.82 2597.18C2528 2598.44 2520.05 2603.15 2514.7 2610.28C2509.35 2617.4 2507.06 2626.36 2508.32 2635.18C2509.58 2644 2514.29 2651.96 2521.42 2657.31L2560.79 2686.87C2584.66 2704.79 2613.15 2715.76 2642.36 2720.46V2756.7C2642.36 2765.61 2645.9 2774.15 2652.2 2780.45C2658.5 2786.75 2667.04 2790.29 2675.95 2790.29C2684.86 2790.29 2693.4 2786.75 2699.7 2780.45C2706 2774.15 2709.54 2765.61 2709.54 2756.7V2720.42C2739.04 2715.99 2767.03 2704.47 2791.11 2686.87C2824.48 2661.83 2843.92 2626.67 2843.92 2588.73C2843.92 2550.79 2824.48 2515.63 2791.11 2490.59C2767.03 2472.97 2739.05 2461.44 2709.54 2457V2324.64C2722.53 2328.31 2734.58 2334.18 2744.75 2342.24L2763.34 2357.02C2770.32 2362.57 2779.21 2365.11 2788.07 2364.09C2796.92 2363.07 2805.01 2358.58 2810.55 2351.6C2816.09 2344.62 2818.63 2335.73 2817.62 2326.88C2816.6 2318.02 2812.11 2309.94 2805.13 2304.39L2786.54 2289.61C2764.07 2272.14 2737.61 2260.52 2709.54 2255.79V2219.2Z" fill="#FFC908"/>
</g>
</g>
<defs>
<filter id="filter0_d_108_443" x="967.431" y="793.38" width="3422.06" height="2752.41" filterUnits="userSpaceOnUse" color-interpolation-filters="sRGB">
<feFlood flood-opacity="0" result="BackgroundImageFix"/>
<feColorMatrix in="SourceAlpha" type="matrix" values="0 0 0 0 0 0 0 0 0 0 0 0 0 0 0 0 0 0 127 0" result="hardAlpha"/>
<feOffset dy="2"/>
<feGaussianBlur stdDeviation="1.5"/>
<feComposite in2="hardAlpha" operator="out"/>
<feColorMatrix type="matrix" values="0 0 0 0 0 0 0 0 0 0 0 0 0 0 0 0 0 0 0.25 0"/>
<feBlend mode="normal" in2="BackgroundImageFix" result="effect1_dropShadow_108_443"/>
<feBlend mode="normal" in="SourceGraphic" in2="effect1_dropShadow_108_443" result="shape"/>
</filter>
<filter id="filter1_d_108_443" x="2137" y="1951" width="1081" height="1081" filterUnits="userSpaceOnUse" color-interpolation-filters="sRGB">
<feFlood flood-opacity="0" result="BackgroundImageFix"/>
<feColorMatrix in="SourceAlpha" type="matrix" values="0 0 0 0 0 0 0 0 0 0 0 0 0 0 0 0 0 0 127 0" result="hardAlpha"/>
<feOffset dy="2"/>
<feGaussianBlur stdDeviation="1.5"/>
<feComposite in2="hardAlpha" operator="out"/>
<feColorMatrix type="matrix" values="0 0 0 0 0 0 0 0 0 0 0 0 0 0 0 0 0 0 0.25 0"/>
<feBlend mode="normal" in2="BackgroundImageFix" result="effect1_dropShadow_108_443"/>
<feBlend mode="normal" in="SourceGraphic" in2="effect1_dropShadow_108_443" result="shape"/>
</filter>
<filter id="filter2_d_108_443" x="2236.23" y="2050.23" width="879.438" height="879.438" filterUnits="userSpaceOnUse" color-interpolation-filters="sRGB">
<feFlood flood-opacity="0" result="BackgroundImageFix"/>
<feColorMatrix in="SourceAlpha" type="matrix" values="0 0 0 0 0 0 0 0 0 0 0 0 0 0 0 0 0 0 127 0" result="hardAlpha"/>
<feOffset dy="2"/>
<feGaussianBlur stdDeviation="1.5"/>
<feComposite in2="hardAlpha" operator="out"/>
<feColorMatrix type="matrix" values="0 0 0 0 0 0 0 0 0 0 0 0 0 0 0 0 0 0 0.25 0"/>
<feBlend mode="normal" in2="BackgroundImageFix" result="effect1_dropShadow_108_443"/>
<feBlend mode="normal" in="SourceGraphic" in2="effect1_dropShadow_108_443" result="shape"/>
</filter>
</defs>
</svg>
