<svg width="50" height="50" viewBox="0 0 50 50" fill="none" xmlns="http://www.w3.org/2000/svg">
<g filter="url(#filter0_d_255_12304)">
<path d="M33.7502 37.7025C33.8708 37.7025 33.9718 37.6617 34.0532 37.5799C34.1346 37.4982 34.1755 37.3972 34.1758 37.2769V36.8513C34.1758 36.7307 34.1349 36.6297 34.0532 36.5483C33.9715 36.4669 33.8705 36.426 33.7502 36.4257C33.6299 36.4254 33.5287 36.4663 33.4467 36.5483C33.3647 36.6303 33.324 36.7313 33.3246 36.8513V37.2769C33.3246 37.3975 33.3655 37.4987 33.4472 37.5804C33.5289 37.6621 33.6299 37.7028 33.7502 37.7025ZM32.0478 37.7025C32.1684 37.7025 32.2694 37.6617 32.3508 37.5799C32.4323 37.4982 32.4731 37.3972 32.4734 37.2769V34.9362C32.4734 34.8156 32.4326 34.7146 32.3508 34.6331C32.2691 34.5517 32.1681 34.5108 32.0478 34.5106C31.9275 34.5103 31.8264 34.5511 31.7444 34.6331C31.6624 34.7151 31.6217 34.8161 31.6222 34.9362V37.2769C31.6222 37.3975 31.6631 37.4987 31.7448 37.5804C31.8265 37.6621 31.9275 37.7028 32.0478 37.7025ZM30.3454 37.7025C30.466 37.7025 30.567 37.6617 30.6485 37.5799C30.7299 37.4982 30.7708 37.3972 30.771 37.2769V35.7873C30.771 35.6668 30.7302 35.5658 30.6485 35.4843C30.5668 35.4029 30.4657 35.362 30.3454 35.3618C30.2251 35.3615 30.124 35.4023 30.042 35.4843C29.96 35.5663 29.9193 35.6673 29.9199 35.7873V37.2769C29.9199 37.3975 29.9607 37.4987 30.0424 37.5804C30.1241 37.6621 30.2251 37.7028 30.3454 37.7025ZM28.6431 37.7025C28.7637 37.7025 28.8647 37.6617 28.9461 37.5799C29.0275 37.4982 29.0684 37.3972 29.0687 37.2769V35.149C29.0687 35.0284 29.0278 34.9274 28.9461 34.8459C28.8644 34.7645 28.7634 34.7236 28.6431 34.7234C28.5228 34.7231 28.4216 34.7639 28.3396 34.8459C28.2576 34.9279 28.2169 35.0289 28.2175 35.149V37.2769C28.2175 37.3975 28.2583 37.4987 28.3401 37.5804C28.4218 37.6621 28.5228 37.7028 28.6431 37.7025ZM26.9407 37.7025C27.0613 37.7025 27.1623 37.6617 27.2437 37.5799C27.3252 37.4982 27.366 37.3972 27.3663 37.2769V33.4466C27.3663 33.326 27.3254 33.225 27.2437 33.1436C27.162 33.0621 27.061 33.0213 26.9407 33.021C26.8204 33.0207 26.7193 33.0616 26.6373 33.1436C26.5553 33.2256 26.5145 33.3266 26.5151 33.4466V37.2769C26.5151 37.3975 26.556 37.4987 26.6377 37.5804C26.7194 37.6621 26.8204 37.7028 26.9407 37.7025ZM29.4943 33.8615C29.6078 33.8615 29.716 33.8403 29.819 33.7977C29.922 33.7551 30.0159 33.6948 30.1007 33.6168L31.1966 32.5209L33.4523 34.7766C33.5374 34.8617 33.6384 34.9025 33.7553 34.8991C33.8722 34.8957 33.9733 34.8513 34.0587 34.7659C34.1368 34.6808 34.1739 34.5798 34.1702 34.4629C34.1666 34.346 34.1258 34.2484 34.0481 34.1701L31.8031 31.9251C31.718 31.84 31.6239 31.778 31.5209 31.7391C31.4179 31.7002 31.3098 31.6807 31.1966 31.6804C31.0834 31.6801 30.9735 31.6997 30.8668 31.7391C30.7601 31.7785 30.6679 31.8405 30.5902 31.9251L29.4943 33.021L27.2386 30.7653C27.1535 30.6802 27.0524 30.6394 26.9352 30.6428C26.818 30.6462 26.717 30.6906 26.6322 30.776C26.5541 30.8611 26.5168 30.9623 26.5202 31.0794C26.5236 31.1966 26.5645 31.2941 26.6428 31.3718L28.8878 33.6168C28.9658 33.6948 29.058 33.7551 29.1644 33.7977C29.2708 33.8403 29.3808 33.8615 29.4943 33.8615Z" fill="#CEA619"/>
</g>
<g filter="url(#filter1_d_255_12304)">
<path d="M16.3338 37.7025C16.2132 37.7025 16.1122 37.6617 16.0308 37.5799C15.9493 37.4982 15.9085 37.3972 15.9082 37.2769V36.8513C15.9082 36.7307 15.9491 36.6297 16.0308 36.5483C16.1125 36.4669 16.2135 36.426 16.3338 36.4257C16.4541 36.4255 16.5552 36.4663 16.6372 36.5483C16.7192 36.6303 16.76 36.7313 16.7594 36.8513V37.2769C16.7594 37.3975 16.7185 37.4987 16.6368 37.5804C16.5551 37.6621 16.4541 37.7028 16.3338 37.7025ZM18.0362 37.7025C17.9156 37.7025 17.8146 37.6617 17.7331 37.5799C17.6517 37.4982 17.6109 37.3972 17.6106 37.2769V34.9362C17.6106 34.8156 17.6514 34.7146 17.7331 34.6331C17.8149 34.5517 17.9159 34.5108 18.0362 34.5106C18.1565 34.5103 18.2576 34.5511 18.3396 34.6331C18.4216 34.7151 18.4623 34.8161 18.4618 34.9362V37.2769C18.4618 37.3975 18.4209 37.4987 18.3392 37.5804C18.2575 37.6621 18.1565 37.7028 18.0362 37.7025ZM19.7385 37.7025C19.618 37.7025 19.5169 37.6617 19.4355 37.5799C19.3541 37.4982 19.3132 37.3972 19.3129 37.2769V35.7873C19.3129 35.6668 19.3538 35.5658 19.4355 35.4843C19.5172 35.4029 19.6182 35.362 19.7385 35.3618C19.8588 35.3615 19.96 35.4023 20.042 35.4843C20.124 35.5663 20.1647 35.6673 20.1641 35.7873V37.2769C20.1641 37.3975 20.1233 37.4987 20.0416 37.5804C19.9598 37.6621 19.8588 37.7028 19.7385 37.7025ZM21.4409 37.7025C21.3203 37.7025 21.2193 37.6617 21.1379 37.5799C21.0565 37.4982 21.0156 37.3972 21.0153 37.2769V35.149C21.0153 35.0284 21.0562 34.9274 21.1379 34.8459C21.2196 34.7645 21.3206 34.7236 21.4409 34.7234C21.5612 34.7231 21.6624 34.7639 21.7444 34.8459C21.8264 34.9279 21.8671 35.0289 21.8665 35.149V37.2769C21.8665 37.3975 21.8256 37.4987 21.7439 37.5804C21.6622 37.6621 21.5612 37.7028 21.4409 37.7025ZM23.1433 37.7025C23.0227 37.7025 22.9217 37.6617 22.8403 37.5799C22.7588 37.4982 22.718 37.3972 22.7177 37.2769V33.4466C22.7177 33.326 22.7585 33.225 22.8403 33.1436C22.922 33.0621 23.023 33.0213 23.1433 33.021C23.2636 33.0207 23.3647 33.0616 23.4467 33.1436C23.5287 33.2256 23.5694 33.3266 23.5689 33.4466V37.2769C23.5689 37.3975 23.528 37.4987 23.4463 37.5804C23.3646 37.6621 23.2636 37.7028 23.1433 37.7025ZM20.5897 33.8615C20.4762 33.8615 20.368 33.8403 20.265 33.7977C20.162 33.7551 20.0681 33.6948 19.9833 33.6168L18.8874 32.5209L16.6317 34.7766C16.5466 34.8617 16.4456 34.9025 16.3287 34.8991C16.2118 34.8957 16.1106 34.8513 16.0252 34.7659C15.9472 34.6808 15.91 34.5798 15.9137 34.4629C15.9174 34.346 15.9581 34.2484 16.0359 34.1701L18.2809 31.9251C18.366 31.84 18.4601 31.778 18.563 31.7391C18.666 31.7002 18.7741 31.6807 18.8874 31.6804C19.0006 31.6801 19.1105 31.6997 19.2172 31.7391C19.3239 31.7785 19.4161 31.8405 19.4938 31.9251L20.5897 33.021L22.8454 30.7653C22.9305 30.6802 23.0316 30.6394 23.1488 30.6428C23.266 30.6462 23.367 30.6906 23.4518 30.776C23.5299 30.8611 23.5672 30.9623 23.5638 31.0794C23.5604 31.1966 23.5195 31.2941 23.4412 31.3718L21.1962 33.6168C21.1182 33.6948 21.026 33.7551 20.9196 33.7977C20.8132 33.8403 20.7032 33.8615 20.5897 33.8615Z" fill="#CEA619"/>
</g>
<g filter="url(#filter2_d_255_12304)">
<g clip-path="url(#clip0_255_12304)">
<g filter="url(#filter3_d_255_12304)">
<path d="M24.2327 23.3477C24.3497 23.2549 24.489 23.1873 24.638 23.1445V24.5857C24.4909 24.5454 24.3532 24.4766 24.2327 24.3831C24.0295 24.2217 23.9512 24.0319 23.9512 23.8654C23.9512 23.6988 24.0295 23.5091 24.2327 23.3477ZM25.4114 26.9137V25.4576C25.5903 25.5014 25.7538 25.5752 25.8863 25.6747C26.1065 25.8397 26.1848 26.0284 26.1848 26.1857C26.1848 26.3429 26.1065 26.5317 25.8863 26.6967C25.7442 26.8 25.5827 26.8742 25.4114 26.9137Z" fill="#C9A938"/>
<path fill-rule="evenodd" clip-rule="evenodd" d="M25.0254 19.998C22.2487 19.998 19.998 22.2487 19.998 25.0254C19.998 27.802 22.2487 30.0527 25.0254 30.0527C27.802 30.0527 30.0527 27.802 30.0527 25.0254C30.0527 22.2487 27.802 19.998 25.0254 19.998ZM25.4121 21.9316C25.4121 21.8291 25.3713 21.7307 25.2988 21.6582C25.2263 21.5857 25.1279 21.5449 25.0254 21.5449C24.9228 21.5449 24.8244 21.5857 24.7519 21.6582C24.6794 21.7307 24.6386 21.8291 24.6386 21.9316V22.3524C24.3153 22.4068 24.0105 22.5407 23.7518 22.7422C23.3847 23.034 23.1784 23.4383 23.1784 23.8652C23.1784 24.2927 23.3847 24.6964 23.7523 24.9882C24.0111 25.1945 24.3205 25.3218 24.6386 25.378V26.9136C24.4674 26.8739 24.3059 26.8 24.1638 26.6965L23.7105 26.3562C23.6699 26.3257 23.6237 26.3035 23.5745 26.2909C23.5253 26.2783 23.4741 26.2755 23.4238 26.2827C23.3223 26.2972 23.2307 26.3515 23.1691 26.4335C23.1076 26.5156 23.0812 26.6187 23.0957 26.7202C23.1102 26.8218 23.1644 26.9134 23.2465 26.9749L23.6997 27.3152C23.9745 27.5215 24.3025 27.6478 24.6386 27.702V28.1191C24.6386 28.2217 24.6794 28.32 24.7519 28.3925C24.8244 28.4651 24.9228 28.5058 25.0254 28.5058C25.1279 28.5058 25.2263 28.4651 25.2988 28.3925C25.3713 28.32 25.4121 28.2217 25.4121 28.1191V27.7014C25.7517 27.6504 26.0738 27.5179 26.351 27.3152C26.7352 27.027 26.9589 26.6222 26.9589 26.1855C26.9589 25.7488 26.7352 25.344 26.351 25.0558C26.0739 24.8529 25.7517 24.7202 25.4121 24.6691V23.1454C25.5616 23.1877 25.7003 23.2552 25.8174 23.348L26.0313 23.5182C26.1117 23.582 26.2141 23.6113 26.316 23.5996C26.4179 23.5879 26.511 23.5362 26.5748 23.4558C26.6386 23.3755 26.6679 23.2731 26.6562 23.1712C26.6445 23.0692 26.5928 22.9761 26.5124 22.9123L26.2984 22.7422C26.0398 22.541 25.7352 22.4072 25.4121 22.3529V21.9316Z" fill="#CEA619"/>
</g>
</g>
</g>
<g filter="url(#filter4_d_255_12304)">
<path d="M10.8943 35.9266C8.88796 33.3063 7.65109 30.1789 7.32235 26.8951C6.99361 23.6113 7.58599 20.3008 9.03308 17.3347C10.4802 14.3686 12.7248 11.8642 15.5153 10.1022C18.3058 8.34025 21.5319 7.39029 24.832 7.35887C28.1321 7.32744 31.3757 8.21579 34.1993 9.92433C37.0229 11.6329 39.3147 14.0941 40.8181 17.032C42.3214 19.97 42.9767 23.2686 42.7105 26.5581C42.4444 29.8476 41.2673 32.9979 39.3112 35.656L36.7367 33.1301C38.198 30.9843 39.0438 28.4793 39.1822 25.8869C39.3206 23.2945 38.7464 20.7137 37.5218 18.4246C36.2972 16.1354 34.4691 14.2254 32.2358 12.9017C30.0025 11.578 27.4493 10.8913 24.8533 10.916C22.2573 10.9407 19.7177 11.676 17.51 13.0419C15.3023 14.4079 13.5109 16.3524 12.3301 18.6644C11.1494 20.9765 10.6244 23.5678 10.8121 26.1571C10.9999 28.7464 11.8932 31.2348 13.3951 33.3523L10.8816 35.9142L10.8943 35.9266ZM15.9586 30.7649C14.9603 29.1579 14.4076 27.3142 14.3573 25.423C14.307 23.5318 14.7609 21.6613 15.6724 20.0035C16.5839 18.3457 17.9201 16.9603 19.5439 15.9895C21.1677 15.0188 23.0206 14.4977 24.9124 14.4797C26.8042 14.4616 28.6666 14.9474 30.3086 15.887C31.9506 16.8267 33.313 18.1864 34.2559 19.8265C35.1988 21.4667 35.6882 23.3282 35.6739 25.22C35.6596 27.1118 35.1422 28.9657 34.1746 30.5914L31.5113 27.9784C31.9912 26.8911 32.19 25.7007 32.0895 24.5165C31.989 23.3324 31.5924 22.1925 30.9361 21.2016C30.2799 20.2108 29.3851 19.4009 28.3341 18.8462C27.283 18.2916 26.1093 18.0102 24.921 18.0277C23.736 18.0427 22.5734 18.3539 21.5393 18.9329C20.5051 19.5118 19.6322 20.3403 19 21.3427C18.3677 22.3452 17.9962 23.4898 17.9192 24.6725C17.8422 25.8552 18.0623 27.0383 18.5593 28.1143L15.9462 30.7776L15.9586 30.7649Z" fill="#1D1D1D"/>
</g>
<g filter="url(#filter5_d_255_12304)">
<path d="M7.33426 39.04V43H6.30226V39.04H7.33426ZM8.1287 43V40H9.0407L9.0947 41.032L8.9807 40.918C9.0207 40.702 9.0907 40.522 9.1907 40.378C9.2947 40.234 9.4227 40.126 9.5747 40.054C9.7307 39.978 9.9047 39.94 10.0967 39.94C10.3047 39.94 10.4847 39.98 10.6367 40.06C10.7927 40.14 10.9147 40.258 11.0027 40.414C11.0907 40.57 11.1347 40.766 11.1347 41.002V43H10.1147V41.272C10.1147 41.064 10.0747 40.92 9.9947 40.84C9.9147 40.76 9.8127 40.72 9.6887 40.72C9.5927 40.72 9.5027 40.744 9.4187 40.792C9.3347 40.836 9.2687 40.908 9.2207 41.008C9.1727 41.108 9.1487 41.242 9.1487 41.41V43H8.1287ZM13.7291 40H14.7851L13.7051 43H12.4871L11.4071 40H12.4811L13.0991 42.286L13.7291 40ZM16.5536 43.06C16.2216 43.06 15.9336 42.998 15.6896 42.874C15.4496 42.75 15.2636 42.572 15.1316 42.34C14.9996 42.108 14.9336 41.828 14.9336 41.5C14.9336 41.172 14.9996 40.892 15.1316 40.66C15.2636 40.428 15.4476 40.25 15.6836 40.126C15.9236 40.002 16.1976 39.94 16.5056 39.94C16.8216 39.94 17.0896 40.002 17.3096 40.126C17.5336 40.246 17.7036 40.414 17.8196 40.63C17.9356 40.842 17.9936 41.086 17.9936 41.362C17.9936 41.434 17.9916 41.506 17.9876 41.578C17.9836 41.65 17.9776 41.71 17.9696 41.758H15.5936V41.212H17.5196L17.0336 41.398C17.0336 41.158 16.9896 40.974 16.9016 40.846C16.8176 40.718 16.6856 40.654 16.5056 40.654C16.3776 40.654 16.2676 40.684 16.1756 40.744C16.0876 40.804 16.0196 40.898 15.9716 41.026C15.9276 41.154 15.9056 41.318 15.9056 41.518C15.9056 41.714 15.9316 41.874 15.9836 41.998C16.0356 42.118 16.1096 42.206 16.2056 42.262C16.3016 42.314 16.4176 42.34 16.5536 42.34C16.7056 42.34 16.8256 42.31 16.9136 42.25C17.0056 42.19 17.0736 42.106 17.1176 41.998L17.9336 42.268C17.8776 42.44 17.7796 42.586 17.6396 42.706C17.5036 42.822 17.3396 42.91 17.1476 42.97C16.9596 43.03 16.7616 43.06 16.5536 43.06ZM19.8242 43.06C19.5242 43.06 19.2442 43.012 18.9842 42.916C18.7282 42.816 18.5162 42.674 18.3482 42.49L18.8282 41.926C18.9282 42.054 19.0602 42.162 19.2242 42.25C19.3922 42.334 19.5782 42.376 19.7822 42.376C19.9062 42.376 20.0082 42.358 20.0882 42.322C20.1682 42.286 20.2082 42.23 20.2082 42.154C20.2082 42.098 20.1882 42.054 20.1482 42.022C20.1082 41.986 20.0282 41.956 19.9082 41.932L19.4882 41.848C19.1122 41.772 18.8442 41.66 18.6842 41.512C18.5282 41.36 18.4502 41.162 18.4502 40.918C18.4502 40.754 18.5002 40.598 18.6002 40.45C18.7002 40.298 18.8542 40.176 19.0622 40.084C19.2702 39.988 19.5362 39.94 19.8602 39.94C20.1642 39.94 20.4322 39.984 20.6642 40.072C20.8962 40.16 21.0802 40.288 21.2162 40.456L20.7302 41.008C20.6342 40.888 20.5102 40.794 20.3582 40.726C20.2062 40.658 20.0542 40.624 19.9022 40.624C19.8062 40.624 19.7242 40.634 19.6562 40.654C19.5922 40.67 19.5442 40.694 19.5122 40.726C19.4802 40.758 19.4642 40.798 19.4642 40.846C19.4642 40.898 19.4882 40.944 19.5362 40.984C19.5882 41.02 19.6822 41.052 19.8182 41.08L20.3642 41.188C20.6722 41.244 20.8942 41.346 21.0302 41.494C21.1662 41.642 21.2342 41.82 21.2342 42.028C21.2342 42.224 21.1822 42.4 21.0782 42.556C20.9742 42.712 20.8182 42.836 20.6102 42.928C20.4022 43.016 20.1402 43.06 19.8242 43.06ZM23.0175 39.046V41.932C23.0175 42.076 23.0515 42.18 23.1195 42.244C23.1915 42.304 23.2895 42.334 23.4135 42.334C23.5095 42.334 23.5915 42.324 23.6595 42.304C23.7315 42.28 23.7955 42.246 23.8515 42.202L23.9595 42.832C23.8595 42.904 23.7335 42.96 23.5815 43C23.4295 43.04 23.2735 43.06 23.1135 43.06C22.8855 43.06 22.6875 43.028 22.5195 42.964C22.3555 42.9 22.2275 42.798 22.1355 42.658C22.0475 42.518 22.0015 42.332 21.9975 42.1V39.328L23.0175 39.046ZM23.9115 40V40.726H21.4815V40H23.9115ZM28.0614 39.04C28.5334 39.04 28.8994 39.152 29.1594 39.376C29.4234 39.596 29.5554 39.89 29.5554 40.258C29.5554 40.662 29.4254 40.97 29.1654 41.182C28.9054 41.394 28.5394 41.5 28.0674 41.5L27.9714 41.554H27.1854V43H26.1714V39.04H28.0614ZM27.9174 40.822C28.1174 40.822 28.2674 40.782 28.3674 40.702C28.4674 40.622 28.5174 40.494 28.5174 40.318C28.5174 40.146 28.4674 40.02 28.3674 39.94C28.2674 39.86 28.1174 39.82 27.9174 39.82H27.1854V40.822H27.9174ZM28.5234 41.038L29.7894 43H28.6494L27.6354 41.266L28.5234 41.038ZM31.9101 41.098C31.9101 40.958 31.8701 40.848 31.7901 40.768C31.7141 40.684 31.6101 40.642 31.4781 40.642C31.3461 40.642 31.2321 40.676 31.1361 40.744C31.0441 40.808 30.9801 40.924 30.9441 41.092L30.0801 40.888C30.1361 40.6 30.2841 40.37 30.5241 40.198C30.7641 40.026 31.1021 39.94 31.5381 39.94C31.8301 39.94 32.0781 39.984 32.2821 40.072C32.4901 40.156 32.6481 40.284 32.7561 40.456C32.8681 40.624 32.9241 40.832 32.9241 41.08V42.178C32.9241 42.334 32.9941 42.412 33.1341 42.412C33.2061 42.412 33.2641 42.404 33.3081 42.388L33.2481 42.97C33.1281 43.026 32.9821 43.054 32.8101 43.054C32.6541 43.054 32.5161 43.03 32.3961 42.982C32.2761 42.93 32.1821 42.854 32.1141 42.754C32.0461 42.65 32.0121 42.52 32.0121 42.364V42.328L32.1261 42.286C32.1261 42.458 32.0741 42.602 31.9701 42.718C31.8701 42.834 31.7381 42.92 31.5741 42.976C31.4141 43.032 31.2461 43.06 31.0701 43.06C30.8661 43.06 30.6881 43.028 30.5361 42.964C30.3841 42.9 30.2661 42.808 30.1821 42.688C30.1021 42.564 30.0621 42.412 30.0621 42.232C30.0621 42.016 30.1261 41.838 30.2541 41.698C30.3861 41.554 30.5921 41.454 30.8721 41.398L32.0061 41.164L32.0001 41.704L31.4241 41.824C31.3041 41.848 31.2141 41.884 31.1541 41.932C31.0981 41.976 31.0701 42.044 31.0701 42.136C31.0701 42.224 31.1021 42.29 31.1661 42.334C31.2301 42.378 31.3061 42.4 31.3941 42.4C31.4621 42.4 31.5261 42.39 31.5861 42.37C31.6501 42.35 31.7061 42.32 31.7541 42.28C31.8021 42.236 31.8401 42.182 31.8681 42.118C31.8961 42.054 31.9101 41.978 31.9101 41.89V41.098ZM34.7913 43.06C34.5433 43.06 34.3253 43 34.1373 42.88C33.9533 42.756 33.8093 42.578 33.7053 42.346C33.6053 42.114 33.5553 41.836 33.5553 41.512C33.5553 41.176 33.6073 40.892 33.7113 40.66C33.8193 40.428 33.9673 40.25 34.1553 40.126C34.3473 40.002 34.5673 39.94 34.8153 39.94C35.0873 39.94 35.3053 40.024 35.4693 40.192C35.6373 40.356 35.7453 40.566 35.7933 40.822L35.6973 40.948V38.728H36.7173V43H35.8053L35.7393 41.98L35.8593 42.07C35.8353 42.27 35.7733 42.444 35.6733 42.592C35.5773 42.74 35.4533 42.856 35.3013 42.94C35.1533 43.02 34.9833 43.06 34.7913 43.06ZM35.1453 42.31C35.2613 42.31 35.3593 42.28 35.4393 42.22C35.5233 42.156 35.5873 42.062 35.6313 41.938C35.6753 41.814 35.6973 41.662 35.6973 41.482C35.6973 41.314 35.6753 41.172 35.6313 41.056C35.5913 40.936 35.5293 40.846 35.4453 40.786C35.3653 40.722 35.2673 40.69 35.1513 40.69C34.9753 40.69 34.8353 40.756 34.7313 40.888C34.6313 41.016 34.5813 41.22 34.5813 41.5C34.5813 41.78 34.6313 41.986 34.7313 42.118C34.8313 42.246 34.9693 42.31 35.1453 42.31ZM39.123 41.098C39.123 40.958 39.083 40.848 39.003 40.768C38.927 40.684 38.823 40.642 38.691 40.642C38.559 40.642 38.445 40.676 38.349 40.744C38.257 40.808 38.193 40.924 38.157 41.092L37.293 40.888C37.349 40.6 37.497 40.37 37.737 40.198C37.977 40.026 38.315 39.94 38.751 39.94C39.043 39.94 39.291 39.984 39.495 40.072C39.703 40.156 39.861 40.284 39.969 40.456C40.081 40.624 40.137 40.832 40.137 41.08V42.178C40.137 42.334 40.207 42.412 40.347 42.412C40.419 42.412 40.477 42.404 40.521 42.388L40.461 42.97C40.341 43.026 40.195 43.054 40.023 43.054C39.867 43.054 39.729 43.03 39.609 42.982C39.489 42.93 39.395 42.854 39.327 42.754C39.259 42.65 39.225 42.52 39.225 42.364V42.328L39.339 42.286C39.339 42.458 39.287 42.602 39.183 42.718C39.083 42.834 38.951 42.92 38.787 42.976C38.627 43.032 38.459 43.06 38.283 43.06C38.079 43.06 37.901 43.028 37.749 42.964C37.597 42.9 37.479 42.808 37.395 42.688C37.315 42.564 37.275 42.412 37.275 42.232C37.275 42.016 37.339 41.838 37.467 41.698C37.599 41.554 37.805 41.454 38.085 41.398L39.219 41.164L39.213 41.704L38.637 41.824C38.517 41.848 38.427 41.884 38.367 41.932C38.311 41.976 38.283 42.044 38.283 42.136C38.283 42.224 38.315 42.29 38.379 42.334C38.443 42.378 38.519 42.4 38.607 42.4C38.675 42.4 38.739 42.39 38.799 42.37C38.863 42.35 38.919 42.32 38.967 42.28C39.015 42.236 39.053 42.182 39.081 42.118C39.109 42.054 39.123 41.978 39.123 41.89V41.098ZM40.9236 43V40H41.8236L41.8656 40.648C41.9416 40.424 42.0536 40.25 42.2016 40.126C42.3536 40.002 42.5456 39.94 42.7776 39.94C42.8536 39.94 42.9176 39.946 42.9696 39.958C43.0256 39.97 43.0696 39.986 43.1016 40.006L42.9996 40.846C42.9596 40.83 42.9076 40.818 42.8436 40.81C42.7836 40.798 42.7096 40.792 42.6216 40.792C42.5016 40.792 42.3896 40.818 42.2856 40.87C42.1816 40.922 42.0976 41 42.0336 41.104C41.9736 41.204 41.9436 41.332 41.9436 41.488V43H40.9236Z" fill="black"/>
</g>
<defs>
<filter id="filter0_d_255_12304" x="23.5156" y="29.6426" width="13.6602" height="13.0605" filterUnits="userSpaceOnUse" color-interpolation-filters="sRGB">
<feFlood flood-opacity="0" result="BackgroundImageFix"/>
<feColorMatrix in="SourceAlpha" type="matrix" values="0 0 0 0 0 0 0 0 0 0 0 0 0 0 0 0 0 0 127 0" result="hardAlpha"/>
<feOffset dy="2"/>
<feGaussianBlur stdDeviation="1.5"/>
<feComposite in2="hardAlpha" operator="out"/>
<feColorMatrix type="matrix" values="0 0 0 0 0 0 0 0 0 0 0 0 0 0 0 0 0 0 0.25 0"/>
<feBlend mode="normal" in2="BackgroundImageFix" result="effect1_dropShadow_255_12304"/>
<feBlend mode="normal" in="SourceGraphic" in2="effect1_dropShadow_255_12304" result="shape"/>
</filter>
<filter id="filter1_d_255_12304" x="12.9082" y="29.6426" width="13.6602" height="13.0605" filterUnits="userSpaceOnUse" color-interpolation-filters="sRGB">
<feFlood flood-opacity="0" result="BackgroundImageFix"/>
<feColorMatrix in="SourceAlpha" type="matrix" values="0 0 0 0 0 0 0 0 0 0 0 0 0 0 0 0 0 0 127 0" result="hardAlpha"/>
<feOffset dy="2"/>
<feGaussianBlur stdDeviation="1.5"/>
<feComposite in2="hardAlpha" operator="out"/>
<feColorMatrix type="matrix" values="0 0 0 0 0 0 0 0 0 0 0 0 0 0 0 0 0 0 0.25 0"/>
<feBlend mode="normal" in2="BackgroundImageFix" result="effect1_dropShadow_255_12304"/>
<feBlend mode="normal" in="SourceGraphic" in2="effect1_dropShadow_255_12304" result="shape"/>
</filter>
<filter id="filter2_d_255_12304" x="15.8555" y="17.8555" width="18.375" height="18.375" filterUnits="userSpaceOnUse" color-interpolation-filters="sRGB">
<feFlood flood-opacity="0" result="BackgroundImageFix"/>
<feColorMatrix in="SourceAlpha" type="matrix" values="0 0 0 0 0 0 0 0 0 0 0 0 0 0 0 0 0 0 127 0" result="hardAlpha"/>
<feOffset dy="2"/>
<feGaussianBlur stdDeviation="1.5"/>
<feComposite in2="hardAlpha" operator="out"/>
<feColorMatrix type="matrix" values="0 0 0 0 0 0 0 0 0 0 0 0 0 0 0 0 0 0 0.25 0"/>
<feBlend mode="normal" in2="BackgroundImageFix" result="effect1_dropShadow_255_12304"/>
<feBlend mode="normal" in="SourceGraphic" in2="effect1_dropShadow_255_12304" result="shape"/>
</filter>
<filter id="filter3_d_255_12304" x="16.998" y="18.998" width="16.0547" height="16.0547" filterUnits="userSpaceOnUse" color-interpolation-filters="sRGB">
<feFlood flood-opacity="0" result="BackgroundImageFix"/>
<feColorMatrix in="SourceAlpha" type="matrix" values="0 0 0 0 0 0 0 0 0 0 0 0 0 0 0 0 0 0 127 0" result="hardAlpha"/>
<feOffset dy="2"/>
<feGaussianBlur stdDeviation="1.5"/>
<feComposite in2="hardAlpha" operator="out"/>
<feColorMatrix type="matrix" values="0 0 0 0 0 0 0 0 0 0 0 0 0 0 0 0 0 0 0.25 0"/>
<feBlend mode="normal" in2="BackgroundImageFix" result="effect1_dropShadow_255_12304"/>
<feBlend mode="normal" in="SourceGraphic" in2="effect1_dropShadow_255_12304" result="shape"/>
</filter>
<filter id="filter4_d_255_12304" x="4.23438" y="6.35742" width="41.5332" height="34.5684" filterUnits="userSpaceOnUse" color-interpolation-filters="sRGB">
<feFlood flood-opacity="0" result="BackgroundImageFix"/>
<feColorMatrix in="SourceAlpha" type="matrix" values="0 0 0 0 0 0 0 0 0 0 0 0 0 0 0 0 0 0 127 0" result="hardAlpha"/>
<feOffset dy="2"/>
<feGaussianBlur stdDeviation="1.5"/>
<feComposite in2="hardAlpha" operator="out"/>
<feColorMatrix type="matrix" values="0 0 0 0 0 0 0 0 0 0 0 0 0 0 0 0 0 0 0.25 0"/>
<feBlend mode="normal" in2="BackgroundImageFix" result="effect1_dropShadow_255_12304"/>
<feBlend mode="normal" in="SourceGraphic" in2="effect1_dropShadow_255_12304" result="shape"/>
</filter>
<filter id="filter5_d_255_12304" x="3.30273" y="37.7285" width="42.7988" height="10.332" filterUnits="userSpaceOnUse" color-interpolation-filters="sRGB">
<feFlood flood-opacity="0" result="BackgroundImageFix"/>
<feColorMatrix in="SourceAlpha" type="matrix" values="0 0 0 0 0 0 0 0 0 0 0 0 0 0 0 0 0 0 127 0" result="hardAlpha"/>
<feOffset dy="2"/>
<feGaussianBlur stdDeviation="1.5"/>
<feComposite in2="hardAlpha" operator="out"/>
<feColorMatrix type="matrix" values="0 0 0 0 0 0 0 0 0 0 0 0 0 0 0 0 0 0 0.25 0"/>
<feBlend mode="normal" in2="BackgroundImageFix" result="effect1_dropShadow_255_12304"/>
<feBlend mode="normal" in="SourceGraphic" in2="effect1_dropShadow_255_12304" result="shape"/>
</filter>
<clipPath id="clip0_255_12304">
<rect width="12.3749" height="12.3749" fill="white" transform="translate(18.8555 18.8555)"/>
</clipPath>
</defs>
</svg>
