<svg width="4807" height="4807" viewBox="0 0 4807 4807" fill="none" xmlns="http://www.w3.org/2000/svg">
<path d="M1450.06 3789.35C1435.87 3789.35 1423.99 3784.54 1414.42 3774.93C1404.84 3765.32 1400.03 3753.44 1400 3739.29V3689.23C1400 3675.05 1404.81 3663.17 1414.42 3653.59C1424.03 3644.02 1435.91 3639.21 1450.06 3639.18C1464.2 3639.15 1476.1 3643.95 1485.75 3653.59C1495.39 3663.24 1500.18 3675.12 1500.11 3689.23V3739.29C1500.11 3753.47 1495.31 3765.37 1485.7 3774.98C1476.08 3784.59 1464.2 3789.38 1450.06 3789.35ZM1650.28 3789.35C1636.1 3789.35 1624.22 3784.54 1614.64 3774.93C1605.06 3765.32 1600.26 3753.44 1600.22 3739.29V3463.98C1600.22 3449.8 1605.03 3437.92 1614.64 3428.34C1624.25 3418.77 1636.13 3413.96 1650.28 3413.93C1664.43 3413.89 1676.32 3418.7 1685.97 3428.34C1695.61 3437.99 1700.4 3449.87 1700.33 3463.98V3739.29C1700.33 3753.47 1695.53 3765.37 1685.92 3774.98C1676.31 3784.59 1664.43 3789.38 1650.28 3789.35ZM1850.5 3789.35C1836.32 3789.35 1824.44 3784.54 1814.86 3774.93C1805.28 3765.32 1800.48 3753.44 1800.44 3739.29V3564.1C1800.44 3549.91 1805.25 3538.03 1814.86 3528.46C1824.47 3518.88 1836.35 3514.07 1850.5 3514.04C1864.65 3514.01 1876.55 3518.81 1886.19 3528.46C1895.83 3538.1 1900.62 3549.98 1900.56 3564.1V3739.29C1900.56 3753.47 1895.75 3765.37 1886.14 3774.98C1876.53 3784.59 1864.65 3789.38 1850.5 3789.35ZM2050.72 3789.35C2036.54 3789.35 2024.66 3784.54 2015.08 3774.93C2005.5 3765.32 2000.7 3753.44 2000.67 3739.29V3489.01C2000.67 3474.83 2005.47 3462.95 2015.08 3453.37C2024.69 3443.79 2036.57 3438.99 2050.72 3438.96C2064.87 3438.92 2076.77 3443.73 2086.41 3453.37C2096.06 3463.02 2100.84 3474.9 2100.78 3489.01V3739.29C2100.78 3753.47 2095.97 3765.37 2086.36 3774.98C2076.75 3784.59 2064.87 3789.38 2050.72 3789.35ZM2250.94 3789.35C2236.76 3789.35 2224.88 3784.54 2215.3 3774.93C2205.73 3765.32 2200.92 3753.44 2200.89 3739.29V3288.79C2200.89 3274.61 2205.69 3262.73 2215.3 3253.15C2224.91 3243.57 2236.79 3238.77 2250.94 3238.73C2265.09 3238.7 2276.99 3243.51 2286.63 3253.15C2296.28 3262.79 2301.07 3274.67 2301 3288.79V3739.29C2301 3753.47 2296.19 3765.37 2286.58 3774.98C2276.97 3784.59 2265.09 3789.38 2250.94 3789.35ZM1950.61 3337.59C1937.26 3337.59 1924.53 3335.09 1912.42 3330.09C1900.3 3325.08 1889.26 3317.99 1879.28 3308.81L1750.39 3179.92L1485.09 3445.21C1475.08 3455.22 1463.2 3460.03 1449.45 3459.63C1435.71 3459.23 1423.81 3454.01 1413.77 3443.96C1404.59 3433.95 1400.22 3422.07 1400.65 3408.32C1401.08 3394.57 1405.87 3383.09 1415.02 3373.88L1679.06 3109.84C1689.07 3099.83 1700.13 3092.54 1712.25 3087.97C1724.36 3083.39 1737.07 3081.09 1750.39 3081.06C1763.7 3081.03 1776.63 3083.33 1789.18 3087.97C1801.73 3092.6 1812.57 3099.9 1821.72 3109.84L1950.61 3238.73L2215.9 2973.44C2225.92 2963.43 2237.81 2958.62 2251.59 2959.02C2265.38 2959.42 2277.26 2964.65 2287.23 2974.69C2296.41 2984.7 2300.8 2996.6 2300.4 3010.38C2300 3024.16 2295.19 3035.62 2285.98 3044.77L2021.94 3308.81C2012.76 3317.99 2001.92 3325.08 1989.4 3330.09C1976.89 3335.09 1963.96 3337.59 1950.61 3337.59Z" fill="#2860F4"/>
<path d="M3354.94 3789.35C3369.13 3789.35 3381.01 3784.54 3390.58 3774.93C3400.16 3765.32 3404.97 3753.44 3405 3739.29V3689.23C3405 3675.05 3400.19 3663.17 3390.58 3653.59C3380.97 3644.02 3369.09 3639.21 3354.94 3639.18C3340.8 3639.14 3328.9 3643.95 3319.25 3653.59C3309.61 3663.24 3304.82 3675.12 3304.89 3689.23V3739.29C3304.89 3753.47 3309.69 3765.37 3319.3 3774.98C3328.92 3784.59 3340.8 3789.38 3354.94 3789.35ZM3154.72 3789.35C3168.9 3789.35 3180.78 3784.54 3190.36 3774.93C3199.94 3765.32 3204.74 3753.44 3204.78 3739.29V3463.98C3204.78 3449.8 3199.97 3437.92 3190.36 3428.34C3180.75 3418.77 3168.87 3413.96 3154.72 3413.93C3140.57 3413.89 3128.68 3418.7 3119.03 3428.34C3109.39 3437.99 3104.6 3449.87 3104.67 3463.98V3739.29C3104.67 3753.47 3109.47 3765.37 3119.08 3774.98C3128.69 3784.59 3140.57 3789.38 3154.72 3789.35ZM2954.5 3789.35C2968.68 3789.35 2980.56 3784.54 2990.14 3774.93C2999.72 3765.32 3004.52 3753.44 3004.56 3739.29V3564.09C3004.56 3549.91 2999.75 3538.03 2990.14 3528.46C2980.53 3518.88 2968.65 3514.07 2954.5 3514.04C2940.35 3514.01 2928.45 3518.81 2918.81 3528.46C2909.17 3538.1 2904.38 3549.98 2904.44 3564.09V3739.29C2904.44 3753.47 2909.25 3765.37 2918.86 3774.98C2928.47 3784.59 2940.35 3789.38 2954.5 3789.35ZM2754.28 3789.35C2768.46 3789.35 2780.34 3784.54 2789.92 3774.93C2799.5 3765.32 2804.3 3753.44 2804.33 3739.29V3489.01C2804.33 3474.83 2799.53 3462.95 2789.92 3453.37C2780.31 3443.79 2768.43 3438.99 2754.28 3438.96C2740.13 3438.92 2728.23 3443.73 2718.59 3453.37C2708.94 3463.02 2704.16 3474.9 2704.22 3489.01V3739.29C2704.22 3753.47 2709.03 3765.37 2718.64 3774.98C2728.25 3784.59 2740.13 3789.38 2754.28 3789.35ZM2554.06 3789.35C2568.24 3789.35 2580.12 3784.54 2589.7 3774.93C2599.27 3765.32 2604.08 3753.44 2604.11 3739.29V3288.79C2604.11 3274.61 2599.31 3262.73 2589.7 3253.15C2580.09 3243.57 2568.21 3238.77 2554.06 3238.73C2539.91 3238.7 2528.01 3243.51 2518.37 3253.15C2508.72 3262.79 2503.93 3274.67 2504 3288.79V3739.29C2504 3753.47 2508.81 3765.37 2518.42 3774.98C2528.03 3784.59 2539.91 3789.38 2554.06 3789.35ZM2854.39 3337.59C2867.74 3337.59 2880.47 3335.09 2892.58 3330.09C2904.7 3325.08 2915.74 3317.99 2925.72 3308.81L3054.61 3179.92L3319.91 3445.21C3329.92 3455.22 3341.8 3460.03 3355.55 3459.63C3369.29 3459.23 3381.19 3454.01 3391.23 3443.96C3400.41 3433.95 3404.78 3422.07 3404.35 3408.32C3403.92 3394.57 3399.13 3383.09 3389.98 3373.88L3125.94 3109.84C3115.93 3099.83 3104.87 3092.54 3092.75 3087.97C3080.64 3083.39 3067.93 3081.09 3054.61 3081.06C3041.3 3081.03 3028.37 3083.33 3015.82 3087.97C3003.27 3092.6 2992.43 3099.9 2983.28 3109.84L2854.39 3238.73L2589.1 2973.44C2579.08 2963.43 2567.19 2958.62 2553.41 2959.02C2539.62 2959.42 2527.74 2964.65 2517.77 2974.69C2508.59 2984.7 2504.2 2996.6 2504.6 3010.38C2505 3024.16 2509.81 3035.62 2519.02 3044.77L2783.06 3308.81C2792.24 3317.99 2803.08 3325.08 2815.6 3330.09C2828.11 3335.09 2841.04 3337.59 2854.39 3337.59Z" fill="#2860F4"/>
<g filter="url(#filter0_d_113_462)">
<path d="M1047.31 3453.79C854.434 3201.88 735.529 2901.24 703.926 2585.55C672.323 2269.86 729.27 1951.61 868.385 1666.47C1007.5 1381.33 1223.28 1140.58 1491.54 971.189C1759.81 801.801 2069.95 710.478 2387.2 707.457C2704.45 704.436 3016.27 789.837 3287.71 954.085C3559.15 1118.33 3779.48 1354.94 3924 1637.38C4068.52 1919.81 4131.51 2236.92 4105.93 2553.15C4080.34 2869.39 3967.19 3172.24 3779.14 3427.77L3531.64 3184.94C3672.13 2978.66 3753.43 2737.85 3766.74 2488.63C3780.04 2239.41 3724.84 1991.31 3607.12 1771.24C3489.39 1551.18 3313.65 1367.56 3098.95 1240.31C2884.26 1113.06 2638.81 1047.04 2389.25 1049.42C2139.68 1051.8 1895.54 1122.48 1683.3 1253.79C1471.07 1385.11 1298.85 1572.04 1185.34 1794.31C1071.83 2016.57 1021.36 2265.68 1039.41 2514.6C1057.46 2763.52 1143.34 3002.74 1287.73 3206.31L1046.09 3452.59L1047.31 3453.79ZM1534.17 2957.57C1438.19 2803.08 1385.06 2625.84 1380.23 2444.03C1375.39 2262.22 1419.02 2082.4 1506.65 1923.03C1594.27 1763.66 1722.73 1630.48 1878.83 1537.16C2034.93 1443.84 2213.06 1393.74 2394.92 1392.01C2576.79 1390.28 2755.83 1436.97 2913.69 1527.3C3071.54 1617.63 3202.51 1748.35 3293.15 1906.02C3383.79 2063.69 3430.84 2242.65 3429.47 2424.52C3428.1 2606.38 3378.35 2784.61 3285.34 2940.89L3029.31 2689.69C3075.43 2585.17 3094.55 2470.73 3084.88 2356.89C3075.22 2243.05 3037.1 2133.47 2974.01 2038.22C2910.93 1942.96 2824.91 1865.1 2723.86 1811.78C2622.82 1758.47 2509.99 1731.41 2395.76 1733.1C2281.83 1734.54 2170.07 1764.45 2070.65 1820.11C1971.24 1875.77 1887.32 1955.41 1826.54 2051.78C1765.76 2148.15 1730.04 2258.19 1722.64 2371.88C1715.24 2485.58 1736.39 2599.32 1784.17 2702.76L1532.97 2958.79L1534.17 2957.57Z" fill="#2860F4"/>
</g>
<g filter="url(#filter1_d_113_462)">
<g filter="url(#filter2_d_113_462)">
<path d="M2332.15 2255.2C2342.32 2247.13 2354.41 2241.27 2367.35 2237.55V2362.74C2354.58 2359.24 2342.61 2353.26 2332.15 2345.14C2314.5 2331.12 2307.69 2314.64 2307.69 2300.17C2307.69 2285.7 2314.5 2269.22 2332.15 2255.2ZM2434.54 2564.98V2438.48C2450.08 2442.29 2464.28 2448.7 2475.8 2457.34C2494.92 2471.67 2501.73 2488.07 2501.73 2501.73C2501.73 2515.39 2494.92 2531.79 2475.8 2546.12C2463.45 2555.1 2449.42 2561.54 2434.54 2564.98Z" fill="#EEBB06"/>
<path fill-rule="evenodd" clip-rule="evenodd" d="M2400.95 1964.23C2159.75 1964.23 1964.23 2159.75 1964.23 2400.95C1964.23 2642.15 2159.75 2837.67 2400.95 2837.67C2642.15 2837.67 2837.67 2642.15 2837.67 2400.95C2837.67 2159.75 2642.15 1964.23 2400.95 1964.23ZM2434.54 2132.2C2434.54 2123.29 2431 2114.74 2424.7 2108.44C2418.4 2102.14 2409.86 2098.61 2400.95 2098.61C2392.04 2098.61 2383.49 2102.14 2377.19 2108.44C2370.89 2114.74 2367.36 2123.29 2367.36 2132.2V2168.75C2339.26 2173.48 2312.79 2185.11 2290.31 2202.61C2258.42 2227.96 2240.51 2263.08 2240.51 2300.17C2240.51 2337.3 2258.42 2372.37 2290.36 2397.72C2312.84 2415.64 2339.72 2426.7 2367.36 2431.59V2564.98C2352.48 2561.53 2338.45 2555.11 2326.1 2546.12L2286.73 2516.56C2283.2 2513.91 2279.19 2511.98 2274.91 2510.89C2270.64 2509.79 2266.19 2509.55 2261.82 2510.18C2253 2511.44 2245.04 2516.15 2239.7 2523.28C2234.35 2530.4 2232.06 2539.36 2233.32 2548.18C2234.58 2557 2239.29 2564.96 2246.42 2570.31L2285.79 2599.87C2309.66 2617.79 2338.15 2628.76 2367.36 2633.46V2669.7C2367.36 2678.61 2370.89 2687.15 2377.19 2693.45C2383.49 2699.75 2392.04 2703.29 2400.95 2703.29C2409.86 2703.29 2418.4 2699.75 2424.7 2693.45C2431 2687.15 2434.54 2678.61 2434.54 2669.7V2633.42C2464.04 2628.98 2492.03 2617.47 2516.11 2599.87C2549.48 2574.83 2568.92 2539.67 2568.92 2501.73C2568.92 2463.79 2549.48 2428.63 2516.11 2403.59C2492.03 2385.97 2464.05 2374.44 2434.54 2370V2237.64C2447.53 2241.31 2459.58 2247.18 2469.75 2255.24L2488.34 2270.02C2495.32 2275.56 2504.21 2278.11 2513.07 2277.09C2521.92 2276.07 2530.01 2271.58 2535.55 2264.6C2541.09 2257.62 2543.63 2248.73 2542.62 2239.88C2541.6 2231.02 2537.11 2222.93 2530.13 2217.39L2511.54 2202.61C2489.07 2185.14 2462.61 2173.51 2434.54 2168.79V2132.2Z" fill="#EEBB06"/>
</g>
</g>
<defs>
<filter id="filter0_d_113_462" x="692.43" y="706.38" width="3422.06" height="2752.41" filterUnits="userSpaceOnUse" color-interpolation-filters="sRGB">
<feFlood flood-opacity="0" result="BackgroundImageFix"/>
<feColorMatrix in="SourceAlpha" type="matrix" values="0 0 0 0 0 0 0 0 0 0 0 0 0 0 0 0 0 0 127 0" result="hardAlpha"/>
<feOffset dy="2"/>
<feGaussianBlur stdDeviation="1.5"/>
<feComposite in2="hardAlpha" operator="out"/>
<feColorMatrix type="matrix" values="0 0 0 0 0 0 0 0 0 0 0 0 0 0 0 0 0 0 0.25 0"/>
<feBlend mode="normal" in2="BackgroundImageFix" result="effect1_dropShadow_113_462"/>
<feBlend mode="normal" in="SourceGraphic" in2="effect1_dropShadow_113_462" result="shape"/>
</filter>
<filter id="filter1_d_113_462" x="1862" y="1864" width="1081" height="1081" filterUnits="userSpaceOnUse" color-interpolation-filters="sRGB">
<feFlood flood-opacity="0" result="BackgroundImageFix"/>
<feColorMatrix in="SourceAlpha" type="matrix" values="0 0 0 0 0 0 0 0 0 0 0 0 0 0 0 0 0 0 127 0" result="hardAlpha"/>
<feOffset dy="2"/>
<feGaussianBlur stdDeviation="1.5"/>
<feComposite in2="hardAlpha" operator="out"/>
<feColorMatrix type="matrix" values="0 0 0 0 0 0 0 0 0 0 0 0 0 0 0 0 0 0 0.25 0"/>
<feBlend mode="normal" in2="BackgroundImageFix" result="effect1_dropShadow_113_462"/>
<feBlend mode="normal" in="SourceGraphic" in2="effect1_dropShadow_113_462" result="shape"/>
</filter>
<filter id="filter2_d_113_462" x="1961.23" y="1963.23" width="879.438" height="879.438" filterUnits="userSpaceOnUse" color-interpolation-filters="sRGB">
<feFlood flood-opacity="0" result="BackgroundImageFix"/>
<feColorMatrix in="SourceAlpha" type="matrix" values="0 0 0 0 0 0 0 0 0 0 0 0 0 0 0 0 0 0 127 0" result="hardAlpha"/>
<feOffset dy="2"/>
<feGaussianBlur stdDeviation="1.5"/>
<feComposite in2="hardAlpha" operator="out"/>
<feColorMatrix type="matrix" values="0 0 0 0 0 0 0 0 0 0 0 0 0 0 0 0 0 0 0.25 0"/>
<feBlend mode="normal" in2="BackgroundImageFix" result="effect1_dropShadow_113_462"/>
<feBlend mode="normal" in="SourceGraphic" in2="effect1_dropShadow_113_462" result="shape"/>
</filter>
</defs>
</svg>
